<?xml version="1.0" encoding="UTF-8" standalone="no"?>
<!-- Created with Inkscape (http://www.inkscape.org/) -->

<svg
   xmlns:osb="http://www.openswatchbook.org/uri/2009/osb"
   xmlns:dc="http://purl.org/dc/elements/1.1/"
   xmlns:cc="http://creativecommons.org/ns#"
   xmlns:rdf="http://www.w3.org/1999/02/22-rdf-syntax-ns#"
   xmlns:svg="http://www.w3.org/2000/svg"
   xmlns="http://www.w3.org/2000/svg"
   xmlns:xlink="http://www.w3.org/1999/xlink"
   xmlns:sodipodi="http://sodipodi.sourceforge.net/DTD/sodipodi-0.dtd"
   xmlns:inkscape="http://www.inkscape.org/namespaces/inkscape"
   width="1024mm"
   height="256mm"
   viewBox="0 0 1024 256"
   version="1.1"
   id="svg8"
   sodipodi:docname="blessing1.svg"
   inkscape:version="0.92.1 r15371">
  <defs
     id="defs2">
    <linearGradient
       id="linearGradient4614"
       osb:paint="solid">
      <stop
         style="stop-color:#ffffff;stop-opacity:1;"
         offset="0"
         id="stop4612" />
    </linearGradient>
    <linearGradient
       inkscape:collect="always"
       id="linearGradient4519">
      <stop
         style="stop-color:#6c5d53;stop-opacity:1;"
         offset="0"
         id="stop4515" />
      <stop
         style="stop-color:#6c5d53;stop-opacity:0;"
         offset="1"
         id="stop4517" />
    </linearGradient>
    <filter
       inkscape:label="Ripple"
       inkscape:menu="Distort"
       inkscape:menu-tooltip="Horizontal rippling of edges"
       style="color-interpolation-filters:sRGB;"
       id="filter3692">
      <feTurbulence
         numOctaves="1"
         baseFrequency="0.002 0.107"
         id="feTurbulence3686" />
      <feColorMatrix
         values="2 0 0 0 0 0 0 0 0 0 0 0 0 0 0 0 0 0 0.5 0.5"
         result="result91"
         id="feColorMatrix3688" />
      <feDisplacementMap
         yChannelSelector="A"
         xChannelSelector="R"
         scale="14.3"
         in="SourceGraphic"
         in2="result91"
         id="feDisplacementMap3690" />
    </filter>
    <linearGradient
       inkscape:collect="always"
       xlink:href="#linearGradient4519"
       id="linearGradient4521"
       x1="525.03253"
       y1="178.76433"
       x2="521.72528"
       y2="535.125"
       gradientUnits="userSpaceOnUse" />
    <linearGradient
       inkscape:collect="always"
       xlink:href="#linearGradient4614"
       id="linearGradient4616"
       x1="454.55991"
       y1="179.17773"
       x2="957.65369"
       y2="179.17773"
       gradientUnits="userSpaceOnUse"
       gradientTransform="matrix(0.8089482,0,0,1.0011383,145.14548,-3.5112467)" />
    <filter
       inkscape:label="Neon"
       inkscape:menu="Bevels"
       inkscape:menu-tooltip="Neon light effect"
       x="-0.25"
       y="-0.25"
       width="1.5"
       height="1.5"
       style="color-interpolation-filters:sRGB;"
       id="filter4704">
      <feGaussianBlur
         stdDeviation="1"
         result="result1"
         id="feGaussianBlur4682" />
      <feComposite
         in="result1"
         in2="result1"
         result="result4"
         operator="in"
         id="feComposite4684" />
      <feGaussianBlur
         stdDeviation="7"
         result="result6"
         in="result4"
         id="feGaussianBlur4686" />
      <feComposite
         operator="over"
         in="result6"
         in2="result4"
         result="result8"
         id="feComposite4688" />
      <feComposite
         operator="in"
         result="fbSourceGraphic"
         in="result6"
         in2="result8"
         id="feComposite4690" />
      <feSpecularLighting
         specularExponent="45"
         specularConstant="2"
         surfaceScale="2.5"
         lighting-color="rgb(255,255,255)"
         result="result1"
         in="fbSourceGraphic"
         id="feSpecularLighting4694">
        <fePointLight
           z="20000"
           y="-10000"
           x="-5000"
           id="fePointLight4692" />
      </feSpecularLighting>
      <feComposite
         operator="in"
         result="result2"
         in="result1"
         in2="fbSourceGraphic"
         id="feComposite4696" />
      <feComposite
         k3="1.5"
         k2="1.2"
         operator="arithmetic"
         result="result4"
         in="fbSourceGraphic"
         in2="result2"
         id="feComposite4698" />
      <feComposite
         operator="over"
         in="result9"
         in2="result4"
         result="result9"
         id="feComposite4700" />
      <feBlend
         mode="screen"
         in2="result9"
         id="feBlend4702" />
    </filter>
  </defs>
  <sodipodi:namedview
     id="base"
     pagecolor="#ffffff"
     bordercolor="#666666"
     borderopacity="1.0"
     inkscape:pageopacity="0.0"
     inkscape:pageshadow="2"
     inkscape:zoom="0.32"
     inkscape:cx="2423.2196"
     inkscape:cy="941.79768"
     inkscape:document-units="mm"
     inkscape:current-layer="layer1"
     showgrid="false"
     inkscape:snap-page="false"
     inkscape:snap-grids="false"
     inkscape:snap-to-guides="false"
     inkscape:window-width="1920"
     inkscape:window-height="1016"
     inkscape:window-x="0"
     inkscape:window-y="0"
     inkscape:window-maximized="1">
    <inkscape:grid
       type="xygrid"
       id="grid3680" />
  </sodipodi:namedview>
  <metadata
     id="metadata5">
    <rdf:RDF>
      <cc:Work
         rdf:about="">
        <dc:format>image/svg+xml</dc:format>
        <dc:type
           rdf:resource="http://purl.org/dc/dcmitype/StillImage" />
        <dc:title />
      </cc:Work>
    </rdf:RDF>
  </metadata>
  <g
     inkscape:label="Layer 1"
     inkscape:groupmode="layer"
     id="layer1"
     transform="translate(0,-41)">
    <rect
       id="rect3684"
       width="1000.0222"
       height="252.6927"
       x="10.748698"
       y="44.307297"
       style="fill:url(#linearGradient4521);fill-opacity:1;stroke:#c8beb7;stroke-width:0.26458332;filter:url(#filter3692)"
       ry="1.6536459" />
    <path
       d="M 849.85176,757.05922 V 729.45919 H 659.65157 v 34.80004 H 623.65153 V 502.05896 H 885.8518 V 757.05922 Z M 641.05155,457.65892 V 327.45879 H 869.05178 V 457.65892 Z M 492.8514,764.25923 V 400.05886 h -82.20009 v -34.80004 h 197.40021 v 34.80004 H 528.85143 V 764.25923 Z M 677.05159,427.05889 H 833.05174 V 358.65882 H 677.05159 Z M 621.85153,284.85874 v -33.00003 h 275.40028 v 33.00003 z M 462.25137,503.85897 q 0,64.20006 -6.60001,119.40012 -6.00001,54.60005 -21.00002,96.00009 l -29.40003,-21.00002 q 7.20001,-19.20002 11.40001,-39.60004 4.80001,-21.00002 7.20001,-44.40004 3,-24.00003 4.2,-51.00005 1.2,-27.60003 1.2,-59.40006 v -54.00006 h 33.00004 z m 96.6001,180.60018 V 451.05891 H 591.8515 V 684.45915 Z M 427.45133,287.25875 V 253.65871 H 591.8515 v 33.60004 z m 342.60035,409.80041 h 79.80008 v -68.40007 h -79.80008 z m -110.40011,0 h 75.60007 V 628.65909 H 659.65157 Z M 770.05168,533.859 v 63.00006 h 79.80008 V 533.859 Z m -110.40011,63.00006 h 75.60007 V 533.859 h -75.60007 z"
       style="font-style:normal;font-variant:normal;font-weight:normal;font-stretch:normal;font-size:600.00061035px;line-height:127.99999714%;font-family:NanumGothic;-inkscape-font-specification:NanumGothic;text-align:center;letter-spacing:0px;word-spacing:0px;text-anchor:middle;fill:#e3e2db;fill-opacity:1;stroke:none;stroke-width:1px;stroke-linecap:butt;stroke-linejoin:miter;stroke-opacity:1;filter:url(#filter4704)"
       id="path67"
       inkscape:connector-curvature="0"
       transform="matrix(0.26458333,0,0,0.26833629,0,36.766607)" />
    <g
       style="filter:url(#filter4704)"
       id="g4574"
       transform="matrix(1,0,0,1.0141844,0,-4.8149531)">
      <path
         inkscape:connector-curvature="0"
         id="path4569"
         d="m 277.21717,171.80251 a 99.632164,97.151695 0 0 1 -99.63216,97.15169 99.632164,97.151695 0 0 1 -99.632167,-97.15169 99.632164,97.151695 0 0 1 99.632167,-97.1517 99.632164,97.151695 0 0 1 99.63216,97.1517 z"
         style="fill:none;stroke:#c8beb7;stroke-width:7;stroke-miterlimit:4;stroke-dasharray:none" />
    </g>
    <rect
       style="opacity:0.95;fill:url(#linearGradient4616);fill-opacity:1;stroke:#c8beb7;stroke-width:6.29949093;stroke-linecap:round;stroke-linejoin:round;stroke-miterlimit:9.5;stroke-dasharray:none;stroke-dashoffset:0;paint-order:normal"
       id="rect4610"
       width="401.31418"
       height="105.12601"
       x="515.6922"
       y="123.30744"
       ry="18.098858" />
    <g
       aria-label="活动已结束"
       transform="matrix(0.30927411,0,0,0.31643762,-71.27838,34.830856)"
       style="font-style:normal;font-weight:normal;font-size:40px;line-height:125%;font-family:sans-serif;letter-spacing:0px;word-spacing:0px;fill:#808080;fill-opacity:1;stroke:none;stroke-width:1px;stroke-linecap:butt;stroke-linejoin:miter;stroke-opacity:1"
       id="flowRoot4662">
      <path
         style="font-size:192px;fill:#808080;stroke-width:1.18236983px"
         d="M 2951.8066 406.0625 L 2951.8066 436.60352 L 2900.4121 436.60352 L 2900.4121 453.13672 L 2951.8066 453.13672 L 2951.8066 488.73047 L 2906.248 488.73047 L 2906.248 505.0332 L 3015.7695 505.0332 L 3015.7695 488.73047 L 2968.8633 488.73047 L 2968.8633 453.13672 L 3019.3613 453.13672 L 3019.3613 436.60352 L 2968.8633 436.60352 L 2968.8633 406.0625 L 2951.8066 406.0625 z M 3136.5137 406.29297 L 3136.5137 430.63281 L 3050.5566 430.63281 L 3050.5566 446.47852 L 3136.5137 446.47852 L 3136.5137 471.27734 L 3066.2656 471.27734 L 3066.2656 537.18164 L 3127.7598 537.18164 C 3106.8877 561.29269 3073.6726 583.33634 3042.7012 594.12891 C 3046.7409 597.57334 3051.6779 604.00424 3054.3711 608.36719 C 3083.3227 596.42648 3114.5195 574.84095 3136.5137 550.04102 L 3136.5137 615.94336 L 3153.3457 615.94336 L 3153.3457 548.66211 C 3175.3399 574.38056 3207.4339 596.65499 3237.2832 608.5957 C 3239.9764 604.00312 3245.138 597.34483 3249.1777 593.90039 C 3217.7574 583.33745 3183.8682 561.52232 3162.9961 537.18164 L 3225.1641 537.18164 L 3225.1641 471.27734 L 3153.3457 471.27734 L 3153.3457 446.47852 L 3240.4238 446.47852 L 3240.4238 430.63281 L 3153.3457 430.63281 L 3153.3457 406.29297 L 3136.5137 406.29297 z M 2326.543 406.98242 C 2301.6312 416.16758 2256.5201 423.28465 2217.918 427.41797 C 2219.489 431.32166 2221.733 437.75144 2222.4062 441.88477 C 2238.3408 440.27736 2255.3978 438.21147 2271.7812 435.68555 L 2271.7812 472.88477 L 2207.1465 472.88477 L 2207.1465 489.41797 L 2271.7812 489.41797 L 2271.7812 527.07812 L 2223.5293 527.07812 L 2223.5293 615.71484 L 2238.791 615.71484 L 2238.791 606.07031 L 2318.6875 606.07031 L 2318.6875 614.56641 L 2334.623 614.56641 L 2334.623 527.07812 L 2287.7168 527.07812 L 2287.7168 489.41797 L 2349.2109 489.41797 L 2349.2109 472.88477 L 2287.7168 472.88477 L 2287.7168 433.16016 C 2307.0178 429.71572 2325.1972 425.35262 2339.7852 420.30078 L 2326.543 406.98242 z M 2859.1172 407.66992 C 2850.14 434.07726 2833.9804 462.55226 2829.043 469.90039 C 2824.3299 477.24852 2820.2898 482.52986 2816.25 483.21875 C 2818.4943 488.04096 2820.9638 496.76734 2822.0859 500.44141 C 2825.4524 498.60437 2830.8391 497.45504 2859.3418 494.24023 C 2849.2424 508.70687 2840.0394 519.72968 2835.5508 524.32227 C 2828.5934 532.58891 2822.9844 537.86943 2818.0469 539.01758 C 2819.8423 543.61016 2822.7585 552.1083 2823.6562 555.55273 C 2828.8182 552.79719 2836.8991 550.7295 2899.0664 539.24805 C 2898.3931 535.57398 2897.9435 528.91485 2898.168 524.32227 L 2848.3438 532.81836 C 2866.2982 512.84063 2884.254 488.26953 2899.0664 463.69922 L 2884.0293 454.28516 C 2879.7651 462.32217 2874.8261 470.81956 2869.8887 478.62695 L 2840.041 481.38086 C 2853.058 462.32165 2866.0743 438.21123 2875.9492 414.78906 L 2859.1172 407.66992 z M 2165.627 409.04883 L 2156.4238 421.21875 C 2170.1141 428.79651 2188.7417 439.81927 2197.9434 446.47852 L 2207.5938 432.70117 C 2198.1677 426.27156 2179.3172 415.70807 2165.627 409.04883 z M 2506.0879 409.9668 C 2506.0879 426.27046 2506.0874 442.80487 2505.4141 458.87891 L 2473.5449 458.87891 L 2473.5449 475.18164 L 2504.7402 475.18164 C 2502.0471 527.30744 2493.0696 574.84045 2462.7715 603.31445 C 2467.0357 605.84037 2472.8715 611.58152 2475.7891 615.71484 C 2508.5559 583.56677 2517.983 531.67039 2521.125 475.18164 L 2554.5645 475.18164 C 2552.0957 556.47033 2548.9543 586.55169 2543.1191 593.21094 C 2540.8748 596.19612 2538.4052 596.88588 2534.5898 596.65625 C 2529.6524 596.65625 2517.9822 596.65596 2505.4141 595.50781 C 2508.3317 600.33002 2510.1273 607.21769 2510.5762 612.26953 C 2522.471 612.95842 2534.5895 613.18889 2541.5469 612.5 C 2548.7287 611.58148 2552.994 609.74379 2557.707 603.77344 C 2565.3377 593.66976 2568.0297 561.29329 2570.9473 467.375 C 2570.9473 465.07871 2571.1719 458.87891 2571.1719 458.87891 L 2521.7969 458.87891 C 2522.2457 442.80487 2522.4707 426.27046 2522.4707 409.9668 L 2506.0879 409.9668 z M 2605.7344 420.5293 L 2605.7344 437.29297 L 2751.6152 437.29297 L 2751.6152 497.45508 L 2634.4609 497.45508 L 2634.4609 459.79688 L 2617.6289 459.79688 L 2617.6289 574.61133 C 2617.6289 602.8557 2628.8508 609.28516 2664.7598 609.28516 L 2748.6973 609.28516 C 2785.2795 609.28516 2792.685 596.8854 2796.9492 554.86328 C 2792.0117 553.94476 2784.6058 551.18942 2780.1172 547.97461 C 2776.9752 584.94489 2773.3848 592.52148 2748.9219 592.52148 L 2663.6387 592.52148 C 2639.4002 592.52148 2634.4609 589.30647 2634.4609 574.83984 L 2634.4609 514.21875 L 2751.6152 514.21875 L 2751.6152 525.69922 L 2768.6719 525.69922 L 2768.6719 420.5293 L 2605.7344 420.5293 z M 2380.6309 424.89258 L 2380.6309 440.27734 L 2466.8125 440.27734 L 2466.8125 424.89258 L 2380.6309 424.89258 z M 2154.6289 471.50781 L 2145.4277 483.9082 C 2159.118 491.25633 2177.521 502.27742 2186.7227 508.70703 L 2196.1484 494.69922 C 2186.2735 488.2696 2167.6459 478.16706 2154.6289 471.50781 z M 2372.5508 479.31445 L 2372.5508 494.92969 L 2403.5234 494.92969 C 2397.9127 521.56666 2388.4858 548.43396 2385.3438 556.01172 C 2381.7529 564.50799 2378.835 570.70648 2375.2441 571.625 C 2377.0396 575.98795 2379.733 584.02627 2380.4062 587.4707 C 2380.4062 587.24107 2380.4064 587.01088 2380.6309 586.78125 L 2380.6309 587.69922 C 2385.7928 584.48441 2393.8716 581.95854 2455.8145 567.95117 C 2457.3855 573.46227 2458.7333 578.74363 2459.8555 582.87695 L 2474.668 578.05469 C 2470.4038 561.98065 2460.5282 535.11472 2451.7754 514.67773 L 2438.084 518.58203 C 2442.5726 529.3746 2447.0618 541.77329 2451.1016 553.48438 L 2397.9121 564.9668 C 2406.6649 544.30018 2414.9695 519.04074 2420.8047 494.92969 L 2470.627 494.92969 L 2470.627 479.31445 L 2372.5508 479.31445 z M 3082.4258 486.66211 L 3136.5137 486.66211 L 3136.5137 521.79688 L 3082.4258 521.79688 L 3082.4258 486.66211 z M 3153.3457 486.66211 L 3208.332 486.66211 L 3208.332 521.79688 L 3153.3457 521.79688 L 3153.3457 486.66211 z M 2193.2305 527.76758 C 2180.2135 553.71566 2162.9337 584.02587 2150.8145 601.24805 L 2164.7285 612.72852 C 2177.9699 591.60264 2193.6792 563.12863 2205.3496 539.01758 L 2193.2305 527.76758 z M 2911.8574 528.22656 L 2911.8574 615.71484 L 2928.0176 615.71484 L 2928.0176 606.07031 L 2993.5508 606.07031 L 2993.5508 614.79688 L 3010.1582 614.79688 L 3010.1582 528.22656 L 2911.8574 528.22656 z M 2238.791 542.92188 L 2318.6875 542.92188 L 2318.6875 590.22656 L 2238.791 590.22656 L 2238.791 542.92188 z M 2928.0176 543.83984 L 2993.5508 543.83984 L 2993.5508 590.45508 L 2928.0176 590.45508 L 2928.0176 543.83984 z M 2898.6172 569.33008 C 2868.7679 575.53006 2838.0209 582.18838 2817.5977 585.63281 L 2820.291 603.08594 C 2842.2852 598.26373 2871.9091 591.83307 2899.9629 585.17383 L 2898.6172 569.33008 z "
         transform="matrix(0.85549784,0,0,0.83613109,230.46992,19.495609)"
         id="path56" />
    </g>
    <path
       id="path4578"
       style="font-style:normal;font-variant:normal;font-weight:normal;font-stretch:normal;font-size:61.40729523px;line-height:125%;font-family:'DejaVu Math TeX Gyre';-inkscape-font-specification:'DejaVu Math TeX Gyre';letter-spacing:0px;word-spacing:0px;fill:#ff4d80;fill-opacity:1;stroke:none;stroke-width:0.31982964px;stroke-linecap:butt;stroke-linejoin:miter;stroke-opacity:1"
       d="m 861.145,153.17917 c 3.97808,-1.01616 7.71867,-2.15933 10.62801,-3.36602 l -3.26559,-3.62005 c -5.58119,2.6039 -15.79358,4.76323 -24.52161,6.16044 0.53437,1.01616 1.18749,2.60391 1.36561,3.74708 3.68121,-0.57158 7.54054,-1.20668 11.39988,-2.03231 v 10.79667 h -12.46862 v 4.38218 h 11.578 c -2.84997,7.93873 -8.01554,16.63958 -12.76549,21.40281 0.77186,1.20669 1.89998,3.1755 2.43435,4.44569 3.97808,-4.31866 8.13429,-11.36826 11.22176,-18.60837 V 203.733 h 4.3937 v -27.43625 c 3.08747,3.55655 7.06555,8.19278 8.84677,10.60614 l 2.61248,-3.87409 c -1.78123,-1.9053 -8.60928,-9.20893 -11.45925,-12.06688 v -1.71476 h 12.17174 v -4.38218 H 861.145 Z m 21.13727,0.19053 h -4.33433 v 34.80339 h 4.33433 z m 8.25304,-6.79555 v 50.68084 c 0,1.27021 -0.475,1.58775 -1.54373,1.65126 -1.12812,0 -4.8687,0.0635 -8.96553,-0.0635 0.65312,1.2702 1.30623,3.49305 1.6031,4.76324 5.40307,0 8.66866,-0.12702 10.56864,-0.95265 1.84061,-0.76212 2.67185,-2.15934 2.67185,-5.39833 v -50.68085 z m -92.74275,8.57382 c -1.00936,-2.34985 -2.96872,-6.03343 -4.74995,-8.89137 l -3.44372,1.52424 c 1.66249,2.92145 3.56246,6.85906 4.51246,9.27243 z m 21.37477,24.76884 v 6.54151 h -8.96553 v -6.54151 z m 13.41861,6.54151 h -9.44053 v -6.54151 h 9.44053 z m -9.44053,10.47913 v -6.79556 h 9.44053 v 6.79556 z m -12.94361,0 v -6.79556 h 8.96553 v 6.79556 z m -4.09683,-17.08415 c -1.24686,-1.3337 -5.46244,-5.46184 -7.54054,-7.24012 2.79059,-4.12813 5.16556,-8.70085 6.82805,-13.40057 l -2.43435,-1.71477 -0.83125,0.19053 h -17.09981 v 4.31867 h 14.90296 c -3.79995,8.31979 -10.56863,16.32203 -17.04044,20.83123 0.65312,0.88913 1.84061,3.04847 2.25623,4.25515 2.67185,-2.03231 5.34369,-4.5727 7.95617,-7.49416 V 203.733 h 4.27495 v -27.24571 c 2.13747,2.34986 4.98744,5.58886 6.23431,7.30363 l 2.49372,-3.81059 v 23.87969 h 4.09683 v -2.98496 h 22.38414 v 2.79443 h 4.27495 v -27.7538 h -30.75592 z m 23.8685,-11.74932 h -16.80295 v -6.98608 h 16.80295 z m -20.78104,-10.79667 v 14.54375 h 24.93724 v -14.54375 z m -3.32496,-8.3833 v 4.06464 h 31.34967 v -4.06464 z m -72.43672,30.35771 h 9.91552 v 8.31978 c -3.50308,0.57159 -6.82805,1.14317 -9.91552,1.65126 z m 9.91552,-26.16606 v 8.82787 h -9.91552 v -8.82787 z m -9.91552,12.95601 h 9.91552 v 9.14541 h -9.91552 z m 19.47479,23.94321 -0.2375,-4.06464 -4.98744,0.88915 v -33.72373 h 4.33433 V 148.797 h -26.83721 v 4.31866 h 3.97808 v 36.8357 c -1.60311,0.19053 -3.14684,0.44457 -4.45308,0.63511 l 0.95,4.63621 c 4.98744,-0.95264 11.28112,-2.09582 17.69355,-3.36602 V 203.733 h 4.33433 v -12.70196 z m 19.59354,-32.58055 c -1.36561,9.33595 -3.79996,17.52871 -7.06555,24.38778 -3.02809,-7.04959 -4.98744,-15.30587 -6.35305,-24.38778 z m 1.95936,-4.63621 -0.77186,0.19053 h -21.49352 v 4.44568 h 2.84997 c 1.72185,11.11422 4.1562,21.02175 7.89679,29.15102 -3.50309,6.03343 -7.71867,10.66964 -12.2905,13.71812 1.00936,0.82563 2.19685,2.34986 2.84997,3.55655 4.33433,-3.239 8.31241,-7.49416 11.75612,-12.82898 2.96873,5.14429 6.59056,9.27243 11.04364,12.3209 0.71249,-1.14318 2.07809,-2.79443 3.08746,-3.68357 -4.74995,-2.98496 -8.60928,-7.43065 -11.63737,-12.95601 4.57182,-8.63733 7.77803,-19.49751 9.38115,-33.08862 z m -80.1554,7.49416 v 29.65908 h 3.97808 v -26.03903 h 14.90297 v 25.91202 h 4.09683 v -29.53207 h -11.45925 c 0.77187,-2.03232 1.60311,-4.5092 2.43435,-6.73205 h 10.68738 v -4.19165 h -26.12472 v 4.19165 h 11.28113 c -0.65312,2.15934 -1.48436,4.76324 -2.19685,6.73205 z m -1.89998,4.25515 c -2.3156,-3.62006 -7.24367,-9.33594 -11.45926,-13.71812 0.53438,-1.3337 1.06875,-2.6039 1.54374,-3.8741 l -3.85933,-1.20668 c -2.61247,7.49416 -7.65929,15.87745 -13.65611,21.27579 0.94999,0.69861 2.37497,2.03231 3.02809,2.85794 4.45308,-4.19165 8.19367,-9.58998 11.16239,-15.36938 3.97807,4.38218 8.31241,9.84402 10.50926,13.33706 z m -17.33732,-0.25403 c 2.13748,2.28635 4.6312,5.52535 5.8187,7.62117 l 2.96871,-2.22284 c -1.24686,-1.9688 -3.68121,-4.95376 -5.87806,-7.24013 z m 11.99363,9.90752 -0.71249,0.25404 h -17.3967 v 4.19165 h 15.37797 c -1.84061,4.25516 -4.63121,9.27244 -6.9468,12.76548 -1.60311,-1.58774 -3.14685,-3.04847 -4.6312,-4.38217 l -2.90935,2.41336 c 4.45308,4.12815 9.79677,9.97105 12.34987,13.71813 l 3.14684,-2.73092 c -1.18749,-1.71477 -3.08747,-3.93762 -5.16557,-6.16045 3.14685,-4.76324 7.36242,-12.13038 9.67802,-18.16382 z m 16.86232,-7.43064 c -0.17812,21.97439 -0.83124,29.65909 -14.90297,34.04127 0.83124,0.82563 1.8406,2.34986 2.19686,3.36602 15.08108,-5.01728 16.26857,-14.16269 16.44669,-37.40729 z m 1.89998,26.10254 c 3.9187,3.30251 8.90616,8.00224 11.3405,10.92369 l 2.73122,-2.92145 c -2.43435,-2.85794 -7.54055,-7.36714 -11.45925,-10.47913 z m -70.29926,-17.90978 h 23.33413 v -4.69972 h -23.33413 v -9.97104 h 19.23731 v -4.63623 h -19.23731 v -9.78051 h -4.51244 v 9.78051 h -19.17793 v 4.63623 h 19.17793 v 9.97104 h -23.51225 v 4.69972 h 23.51225 v 20.70421 H 616.93824 V 179.7898 h -4.57182 v 20.45015 h 36.99022 v 3.62007 h 4.45308 V 179.7898 h -4.45308 v 15.87745 h -13.83423 z m -46.49012,5.84291 H 558.217 V 169.5012 h 30.81529 z m 4.45308,-15.75044 h -18.04981 v -8.00224 h 22.44351 v -4.44569 h -22.44351 v -6.79555 h -4.3937 v 19.24348 h -17.04044 v 20.19613 h 39.48395 z m -42.74954,38.741 c 3.20621,-3.30252 6.2343,-8.63734 8.19365,-13.59111 l -4.1562,-1.14317 c -1.89998,4.69973 -4.92807,9.78051 -8.07491,12.63845 z M 564.27318,190.777 c 0.77186,4.06462 1.30624,9.33594 1.30624,12.51143 l 4.3937,-0.6351 c -0.0594,-3.04847 -0.7125,-8.25628 -1.48436,-12.2574 z m 12.17174,0.0635 c 1.78123,3.8741 3.56246,9.14542 4.15621,12.2574 l 4.27495,-1.07966 c -0.71249,-3.1755 -2.61247,-8.3198 -4.45308,-12.13038 z m 12.05301,-0.57158 c 2.96871,4.06463 6.2343,9.52647 7.59991,13.01951 l 4.15621,-1.77828 c -1.48436,-3.55655 -4.8687,-8.82786 -7.8968,-12.82898 z"
       inkscape:connector-curvature="0" />
    <path
       style="font-style:normal;font-variant:normal;font-weight:normal;font-stretch:normal;font-size:61.40729523px;line-height:125%;font-family:'DejaVu Math TeX Gyre';-inkscape-font-specification:'DejaVu Math TeX Gyre';letter-spacing:0px;word-spacing:0px;fill:#808080;fill-opacity:1;stroke:none;stroke-width:0.31982964px;stroke-linecap:butt;stroke-linejoin:miter;stroke-opacity:1"
       d="m 762.7669,144.47684 c -2.6125,7.49417 -7.65974,15.87739 -13.65655,21.27573 0.94998,0.69861 2.37514,2.03205 3.02823,2.85769 4.45307,-4.19164 8.19391,-9.58967 11.16264,-15.36909 3.97809,4.38221 8.31207,9.84414 10.50891,13.33717 l 2.73163,-3.30264 c -2.3156,-3.62005 -7.24368,-9.33585 -11.45926,-13.71801 0.53438,-1.33371 1.06857,-2.604 1.54358,-3.87419 z m -106.99295,0.44442 c -5.5812,2.60393 -15.79348,4.76314 -24.52151,6.16035 0.53436,1.01616 1.18769,2.60387 1.36581,3.74706 3.6812,-0.57158 7.54049,-1.20626 11.39981,-2.0319 v 10.79622 h -12.46899 v 4.38216 h 11.57809 c -2.84996,7.93874 -8.01516,16.63962 -12.76512,21.40283 0.77187,1.20669 1.8996,3.17553 2.43396,4.44575 3.97809,-4.31869 8.13458,-11.36807 11.22206,-18.60818 v 27.24587 h 4.39354 v -27.43655 c 3.08747,3.55655 7.06578,8.19269 8.847,10.60606 l 2.61224,-3.87366 c -1.78123,-1.90529 -8.60928,-9.20901 -11.45924,-12.06696 v -1.71516 h 12.17186 v -4.38216 H 648.4116 V 151.9074 c 3.97806,-1.01616 7.71893,-2.1595 10.62828,-3.36619 z m -75.46467,0.0636 -3.44371,1.52445 c 1.66248,2.92145 3.5624,6.85893 4.51239,9.2723 l 3.68144,-1.90532 c -1.00936,-2.34984 -2.96889,-6.03348 -4.75012,-8.89143 z m 97.49276,0.3178 v 50.68064 c 0,1.27019 -0.47535,1.58755 -1.54408,1.65105 -1.12813,0 -4.86852,0.0634 -8.96535,-0.0636 0.65312,1.27019 1.30611,3.49335 1.603,4.76353 5.40306,0 8.66889,-0.12729 10.56886,-0.95292 1.8406,-0.76211 2.67169,-2.15911 2.67169,-5.39811 v -50.68064 z m 131.51395,2.2226 v 4.31861 h 3.97804 v 36.83601 c -1.60308,0.19052 -3.14672,0.44455 -4.45296,0.63507 l 0.94982,4.6359 c 4.98745,-0.95263 11.28157,-2.09547 17.69401,-3.36568 v 11.87627 h 4.33409 v -12.70206 l 5.22502,-1.01648 -0.23773,-4.06434 -4.98729,0.88934 v -33.72403 h 4.33411 v -4.31861 z m -216.18215,0.12713 v 4.06435 h 31.35001 v -4.06435 z m 183.8234,0.44442 v 4.19148 h 11.28096 c -0.65312,2.15932 -1.48429,4.76358 -2.19676,6.7324 h -7.60005 v 29.65919 h 3.97804 v -26.03926 h 14.90297 v 25.91212 h 4.09692 v -29.53205 h -11.45926 c 0.77186,-2.03234 1.60324,-4.50956 2.43448,-6.7324 h 10.68721 v -4.19148 z m -83.7179,0.44442 v 4.6364 h 38.593 v 16.63981 h -30.99295 v -10.41593 h -4.45346 v 31.75519 c 0,7.81172 2.9691,9.58958 12.46899,9.58958 h 22.2059 c 9.678,0 11.63751,-3.42947 12.76561,-15.0518 -1.30622,-0.25402 -3.26599,-1.01616 -4.45346,-1.90529 -0.83124,10.22509 -1.78094,12.3212 -8.25273,12.3212 h -22.56245 c -6.41241,0 -7.7184,-0.889 -7.7184,-4.89014 v -16.76693 h 30.99295 v 3.17552 h 4.51289 v -29.08763 z m 165.35736,2.98535 -0.77152,0.19016 h -21.4938 v 4.44574 h 2.84996 c 1.72185,11.11422 4.1561,21.02191 7.89667,29.15118 -3.50308,6.03343 -7.71837,10.66956 -12.29021,13.71804 1.00939,0.82563 2.19684,2.34966 2.84996,3.55637 4.33435,-3.239 8.31215,-7.49385 11.75589,-12.82869 2.9687,5.14432 6.59069,9.27221 11.04376,12.32069 0.71249,-1.14316 2.0783,-2.79435 3.08766,-3.68348 -4.74993,-2.98497 -8.60944,-7.43045 -11.63754,-12.9558 4.57184,-8.63735 7.77825,-19.49783 9.38136,-33.08895 z m -41.02748,0.31729 h 9.91568 v 8.82788 h -9.91568 z m -152.35452,0.25424 v 34.80305 h 4.33409 v -34.80305 z m -68.75549,3.93724 v 14.5438 h 24.93698 v -14.5438 z m 246.75962,0.12713 h 13.41882 c -1.36562,9.33593 -3.80013,17.52856 -7.06573,24.38765 -3.0281,-7.04961 -4.98747,-15.30575 -6.35309,-24.38765 z m -252.99387,0.0636 -0.83148,0.19069 h -17.09973 v 4.3186 h 14.90298 c -3.79995,8.3198 -10.56852,16.32207 -17.04031,20.83129 0.65313,0.88913 1.84058,3.04834 2.25618,4.25502 2.67185,-2.03231 5.34366,-4.57266 7.95613,-7.49411 v 24.13392 h 4.27466 v -27.24587 c 2.13746,2.34987 4.9874,5.58866 6.23425,7.30343 l 2.49391,-3.81061 v 23.87968 h 4.09691 v -2.98485 h 22.38415 v 2.79467 h 4.27468 V 174.644 h -30.75574 v 3.93774 c -1.24688,-1.33371 -5.46251,-5.46208 -7.54063,-7.24037 2.79059,-4.12814 5.16554,-8.70101 6.828,-13.40073 z m 10.21231,3.61992 h 16.80258 v 6.98614 h -16.80258 z m 161.67642,1.3338 -2.90938,1.84173 c 2.13749,2.28635 4.63129,5.52543 5.81877,7.62125 l 2.9683,-2.22261 c -1.24687,-1.96882 -3.68083,-4.95403 -5.87769,-7.24037 z m 55.45553,3.62042 h 9.91568 v 9.14519 h -9.91568 z m -29.5093,0.69816 c -0.17811,21.97441 -0.83124,29.65915 -14.90297,34.04134 0.83124,0.82563 1.84102,2.35003 2.19729,3.36619 15.08109,-5.01727 16.2684,-14.16293 16.44652,-37.40753 z m -16.86202,7.43108 -0.71263,0.25371 h -17.39686 v 4.19201 h 15.37838 c -1.84058,4.25513 -4.63127,9.27206 -6.94685,12.76511 -1.60311,-1.58774 -3.1469,-3.04845 -4.63124,-4.38216 l -2.90938,2.41329 c 4.45307,4.12814 9.79654,9.97146 12.34963,13.71854 l 3.14709,-2.73111 c -1.1875,-1.71476 -3.08748,-3.9375 -5.16559,-6.16034 3.14685,-4.76324 7.36237,-12.1303 9.67798,-18.16375 z m 46.37132,5.08082 h 9.91568 v 8.31938 c -3.50308,0.5716 -6.8282,1.1435 -9.91568,1.65158 z m -220.10076,0.63511 h 8.96533 v 6.54119 h -8.96533 z m 12.94339,0 h 9.44076 v 6.54119 h -9.44076 z m -12.94339,10.22469 h 8.96533 v 6.79545 h -8.96533 z m 12.94339,0 h 9.44076 v 6.79545 h -9.44076 z m 182.16097,0.25424 -2.61276,2.47687 c 3.91871,3.3025 8.90603,8.00243 11.34038,10.92388 l 2.73164,-2.9218 c -2.43435,-2.85795 -7.54055,-7.36695 -11.45926,-10.47895 z"
       id="path4588"
       inkscape:connector-curvature="0" />
  </g>
</svg>
